<svg width="516" height="608" viewBox="0 0 516 608" fill="none" xmlns="http://www.w3.org/2000/svg">
<path d="M257.723 607.798C400.06 607.798 515.446 600.779 515.446 592.122C515.446 583.464 400.06 576.445 257.723 576.445C115.387 576.445 0 583.464 0 592.122C0 600.779 115.387 607.798 257.723 607.798Z" fill="#CED3E6"/>
<path d="M241.655 155.573L267.687 250.769L258.399 240.075C261.833 241.907 265.819 243.313 270.214 244.292C274.609 245.288 279.413 245.858 284.431 246.107C289.449 246.374 294.68 246.32 300.036 246.107C305.392 245.875 310.855 245.484 316.406 245.004H316.442C324.627 244.31 331.834 250.377 332.527 258.562C333.186 266.374 327.652 273.278 320.054 274.523C314.325 275.431 308.506 276.303 302.545 276.997C296.567 277.691 290.446 278.207 284.111 278.349C277.776 278.491 271.211 278.242 264.413 277.263C257.634 276.285 250.606 274.505 243.737 271.552C239.342 269.648 236.21 266.053 234.787 261.836L234.449 260.84L203.221 167.228C199.716 156.712 205.392 145.324 215.926 141.818C226.442 138.313 237.83 143.989 241.335 154.523C241.442 154.843 241.566 155.235 241.655 155.573Z" fill="#EA9B7A"/>
<path d="M251.673 500.663C251.281 500.663 250.89 500.592 250.498 500.449L114.128 451.285C112.349 450.645 111.423 448.67 112.064 446.89C112.705 445.111 114.68 444.168 116.459 444.826L252.829 493.99C254.609 494.631 255.552 496.606 254.894 498.385C254.413 499.791 253.079 500.663 251.673 500.663Z" fill="#C77E2E"/>
<path d="M109.627 500.663C108.221 500.663 106.904 499.791 106.388 498.385C105.748 496.606 106.673 494.63 108.452 493.972L246.442 443.99C248.221 443.349 250.196 444.274 250.855 446.054C251.495 447.833 250.57 449.808 248.791 450.467L110.801 500.449C110.41 500.591 110.018 500.663 109.627 500.663Z" fill="#C77E2E"/>
<path d="M263.808 588.528C260.908 588.528 258.381 586.374 257.972 583.421L233.345 399.488H130.267L106.014 583.421C105.587 586.641 102.633 588.919 99.4127 588.492C96.1921 588.065 93.9145 585.111 94.3415 581.891L119.27 392.869C119.662 389.933 122.153 387.744 125.107 387.744H238.506C241.459 387.744 243.95 389.933 244.342 392.851L269.662 581.873C270.089 585.093 267.83 588.065 264.609 588.492C264.324 588.51 264.075 588.528 263.808 588.528Z" fill="#FAAF3A"/>
<path d="M205.659 393.616H132.011C108.683 393.616 83.7011 380.84 80.1067 357.797C75.3202 326.961 74.1281 297.121 75.4626 269.719C76.9751 238.74 91.7794 209.914 116.121 190.697C116.121 190.697 130.836 254.808 112.331 343.296C119.413 376.89 205.659 393.616 205.659 393.616Z" fill="#FAAF3A"/>
<path d="M190.303 17.6185C190.303 17.6185 181.548 -3.48474 158.363 0.50104C142.171 3.27685 135.267 23.4548 136.21 54.6293C137.598 99.9853 122.26 127.316 122.26 127.316L142.616 131.943C142.633 131.925 194.466 54.1667 190.303 17.6185Z" fill="#39393B"/>
<path d="M376.032 509.719H343.132C343.132 509.719 335.516 473.207 332.972 452.744C330.41 432.264 329.093 383.74 329.093 383.74C329.093 383.74 302.883 392.263 248.007 389.043C126.423 381.943 172.527 292.619 172.527 292.619C176.637 298.295 201.797 294.363 219.004 297.067C271.797 302.139 317.563 322.85 345.036 334.701C351.655 337.548 357.527 340.573 362.687 343.758C369.306 347.833 373.452 360.235 375.961 376.516C383.452 425.466 376.032 509.719 376.032 509.719Z" fill="#39393B"/>
<path d="M347.225 492.121C346.673 492.121 346.193 491.73 346.068 491.178C341.317 467.691 339.734 438.456 338.452 414.968C337.385 395.484 336.388 377.086 333.879 374.879C331.851 373.082 323.435 374.488 312.794 376.249C291.602 379.772 259.573 385.075 224.271 376.872C205.036 372.388 190.89 363.046 182.242 349.096C167.313 325.039 174.128 295.199 174.199 294.897C174.342 294.256 174.982 293.865 175.623 294.025C176.263 294.167 176.655 294.808 176.495 295.448C176.423 295.733 169.858 324.648 184.27 347.868C192.58 361.267 206.228 370.253 224.822 374.577C259.68 382.691 291.424 377.424 312.438 373.936C325.018 371.854 332.616 370.591 335.481 373.118C338.577 375.858 339.449 389.31 340.837 414.844C342.118 438.26 343.702 467.388 348.417 490.716C348.541 491.356 348.132 491.979 347.492 492.104C347.367 492.121 347.296 492.121 347.225 492.121Z" fill="#585859"/>
<path d="M376.655 492.744H376.637L340.054 491.961C339.395 491.943 338.879 491.41 338.897 490.751C338.915 490.093 339.449 489.577 340.107 489.595L376.691 490.377C377.349 490.395 377.865 490.929 377.847 491.587C377.829 492.228 377.296 492.744 376.655 492.744Z" fill="#585859"/>
<path d="M375.125 551.855H351.904L347.438 524.63L344.982 509.719H373.826L374.289 524.63L375.125 551.855Z" fill="#EA9B7A"/>
<path d="M375.125 551.855H351.904L348.577 531.588L347.438 524.631H374.289L374.52 531.837L375.125 551.855Z" fill="#FAAF3A"/>
<path d="M374.52 531.837L348.577 531.588L347.438 524.631H374.289L374.52 531.837Z" fill="#C77E2E"/>
<path d="M432.42 588.527H344.609C343.95 587.335 343.595 585.663 343.452 583.652C342.901 576.214 345.267 564.364 346.424 556.89C346.566 556.018 346.691 555.2 346.78 554.47C346.94 553.225 347.047 552.175 347.047 551.41C347.047 545.307 352.438 546.356 352.438 546.356C361.317 555.075 371.388 541.997 377.26 546.285C377.26 546.285 377.491 546.463 378.043 546.872C378.541 547.264 379.289 547.869 380.321 548.741C381.815 549.986 383.915 551.801 386.762 554.364C393.737 560.645 405.588 564.773 415.677 568.99C416.958 569.524 418.15 570.075 419.271 570.609C420.107 571.018 420.908 571.428 421.655 571.819C429.912 576.268 432.527 580.538 433.132 583.634C433.719 586.623 432.42 588.527 432.42 588.527Z" fill="#0875F7"/>
<path d="M421.673 571.837C419.413 573.634 414.378 577.246 410.338 577.246C410.16 577.246 409.983 577.246 409.805 577.228C406.958 576.997 396.495 571.855 387.972 567.175C383.096 564.488 378.63 561.855 375.427 559.737C370.178 556.267 369.253 554.951 369.057 554.025C368.292 550.556 374.022 548.153 378.043 546.89C378.541 547.282 379.289 547.887 380.321 548.758C375.338 550.111 371.228 552.246 371.424 553.474C371.922 554.506 377.118 558.456 389.538 565.271C399.022 570.467 408.007 574.648 410 574.826C412.705 575.04 416.673 572.584 419.271 570.645C420.125 571.036 420.926 571.445 421.673 571.837Z" fill="#084FC7"/>
<path d="M432.42 588.527H344.609C343.95 587.335 343.594 585.662 343.452 583.652H433.15C433.719 586.623 432.42 588.527 432.42 588.527Z" fill="#084FC7"/>
<path d="M353.559 588.527H350.943C353.541 585.556 355.979 580.983 355.658 574.47C355.231 565.787 350.036 559.951 346.406 556.89C346.548 556.018 346.673 555.2 346.762 554.47C350.658 557.442 357.224 563.972 357.74 574.363C358.078 580.591 356.032 585.235 353.559 588.527Z" fill="#084FC7"/>
<path d="M385.285 559.559C384.644 559.559 384.039 559.114 383.879 558.456C383.683 557.673 384.164 556.89 384.929 556.694L390.41 555.324C391.192 555.129 391.975 555.609 392.171 556.374C392.367 557.157 391.886 557.94 391.121 558.136L385.641 559.506C385.516 559.541 385.392 559.559 385.285 559.559Z" fill="white"/>
<path d="M379.84 555.004C379.2 555.004 378.595 554.559 378.434 553.901C378.239 553.118 378.719 552.335 379.484 552.139L384.965 550.769C385.748 550.574 386.531 551.054 386.726 551.819C386.922 552.602 386.442 553.385 385.676 553.563L380.196 554.933C380.071 554.986 379.947 555.004 379.84 555.004Z" fill="white"/>
<path d="M390.765 562.744C390.125 562.744 389.52 562.3 389.36 561.641C389.164 560.858 389.644 560.075 390.409 559.897L395.89 558.527C396.673 558.332 397.456 558.812 397.651 559.577C397.847 560.36 397.367 561.143 396.602 561.339L391.121 562.709C390.997 562.744 390.89 562.744 390.765 562.744Z" fill="white"/>
<path d="M396.246 565.823C395.587 565.823 395 565.378 394.84 564.719C394.644 563.937 395.125 563.154 395.89 562.958L401.37 561.588C402.153 561.392 402.936 561.872 403.132 562.638C403.328 563.421 402.847 564.203 402.082 564.381L396.602 565.751C396.495 565.805 396.37 565.823 396.246 565.823Z" fill="white"/>
<path d="M402.242 568.652C401.602 568.652 400.997 568.207 400.837 567.549C400.641 566.766 401.121 565.983 401.887 565.805L407.367 564.435C408.15 564.239 408.933 564.719 409.129 565.484C409.324 566.267 408.844 567.05 408.079 567.246L402.598 568.616C402.474 568.634 402.349 568.652 402.242 568.652Z" fill="white"/>
<path d="M408.719 571.072C408.079 571.072 407.474 570.627 407.314 569.969C407.118 569.186 407.598 568.403 408.364 568.207L413.844 566.837C414.627 566.641 415.41 567.122 415.606 567.887C415.801 568.67 415.321 569.453 414.556 569.63L409.075 571.001C408.951 571.054 408.844 571.072 408.719 571.072Z" fill="white"/>
<path d="M111.637 264.292C111.637 264.292 110.605 271.391 120.107 273.384L219.182 276.694C219.182 276.694 225.872 273.331 224.662 265.039C224.662 265.021 182.829 241.516 111.637 264.292Z" fill="#084FC7"/>
<path d="M220.534 297.05C169.11 325.342 112.954 302.566 112.954 302.566C115.694 295.075 117.74 286.623 119.217 278.936C120.925 269.986 121.886 262.085 122.331 257.939C144.199 256.747 197.829 254.452 218.844 259.434L219.004 267.85L220.534 297.05Z" fill="#EA9B7A"/>
<path d="M182.544 283.491C182.171 286.142 180.961 288.171 179.875 288.011C178.772 287.851 178.203 285.573 178.576 282.922C178.95 280.271 180.16 278.242 181.245 278.402C182.349 278.562 182.918 280.84 182.544 283.491Z" fill="#D96C63"/>
<path d="M218.986 267.851C197.082 266.516 154.004 266.053 119.199 278.918C120.907 269.968 121.868 262.068 122.313 257.922C144.181 256.73 197.812 254.434 218.826 259.416L218.986 267.851Z" fill="#D96C63"/>
<path d="M243.417 227.156C243.203 227.797 242.954 228.384 242.669 228.936C242.563 229.149 242.456 229.363 242.349 229.558C239.591 234.665 235.338 239.096 231.762 242.245C231.015 242.904 230.303 243.491 229.644 244.025C228.328 245.092 227.207 245.929 226.442 246.48C225.73 246.978 225.321 247.245 225.321 247.245C225.321 247.299 225.321 247.334 225.303 247.405C225.267 247.779 225.232 248.188 225.196 248.615C225.071 250.235 224.965 252.156 224.894 254.363C224.822 256.124 224.769 258.064 224.733 260.163C224.716 261.712 224.68 263.331 224.662 265.003C195.605 252.014 135.747 260.217 111.637 264.274C112.082 262.192 112.473 260.146 112.847 258.153C114.555 248.953 115.516 240.679 115.89 233.26C116.459 222.227 115.498 205.644 113.149 188.508C113.007 187.387 112.847 186.284 112.687 185.181C112.58 184.452 112.473 183.74 112.349 183.01C111.53 177.637 110.569 172.245 109.484 167.014C104.733 144.202 108.06 120.27 131.192 117.441C132.865 117.227 134.52 117.049 136.139 116.871C147.029 115.715 155.997 115.305 158.488 115.216C158.95 115.199 159.182 115.199 159.182 115.199L203.879 128.188L208.132 129.416C210.57 130.199 212.829 130.964 214.929 131.711C215.819 132.031 216.691 132.352 217.509 132.654C219.68 133.473 221.637 134.256 223.434 135.056C227.011 136.64 229.84 138.188 232.082 139.772C241.886 146.729 240.374 154.594 240.125 170.128C240.125 170.199 240.125 170.27 240.125 170.341C240.125 170.537 240.125 170.733 240.125 170.946C240.125 171.035 240.125 171.124 240.125 171.213C240.125 171.854 240.125 172.476 240.125 173.117C240.143 175.128 240.214 177.121 240.338 179.113C240.499 182.049 240.765 184.968 241.086 187.815C241.21 188.953 241.335 190.092 241.477 191.231C241.602 192.299 241.744 193.348 241.886 194.398C243.63 207.993 245.854 219.914 243.417 227.156Z" fill="#0875F7"/>
<path d="M240.107 170.341C240.107 170.537 240.107 170.733 240.107 170.946C240.107 171.035 240.107 171.124 240.107 171.213C240.107 171.854 240.107 172.476 240.107 173.117L230.712 179.007C230.427 179.185 230.107 179.238 229.787 179.185C229.431 179.131 229.111 178.918 228.897 178.597C228.506 177.975 228.701 177.174 229.306 176.782L239.271 170.537C239.52 170.377 239.822 170.323 240.107 170.341Z" fill="#084FC7"/>
<path d="M178.185 220.661C177.829 220.661 177.473 220.519 177.206 220.234C176.726 219.701 176.762 218.864 177.295 218.384L186.032 210.519C186.566 210.039 187.402 210.074 187.883 210.608C188.363 211.142 188.327 211.978 187.794 212.459L179.057 220.323C178.808 220.537 178.488 220.661 178.185 220.661Z" fill="#084FC7"/>
<path d="M241.851 194.398L235.872 199.79C235.623 200.021 235.303 200.128 235 200.128C234.644 200.128 234.288 199.985 234.021 199.701C233.541 199.167 233.577 198.33 234.11 197.85L241.441 191.249C241.566 192.298 241.708 193.348 241.851 194.398Z" fill="#084FC7"/>
<path d="M160.463 189.024C160.267 188.722 160.178 188.348 160.267 187.974C160.427 187.263 161.139 186.836 161.851 186.996L173.292 189.7C174.004 189.861 174.431 190.572 174.271 191.284C174.11 191.996 173.399 192.423 172.687 192.263L161.246 189.558C160.908 189.487 160.641 189.291 160.463 189.024Z" fill="#084FC7"/>
<path d="M119.626 211.48C119.27 211.48 118.914 211.338 118.647 211.053C118.167 210.519 118.203 209.683 118.736 209.203L127.473 201.338C128.007 200.857 128.843 200.893 129.324 201.427C129.804 201.961 129.768 202.797 129.235 203.277L120.498 211.142C120.249 211.373 119.946 211.48 119.626 211.48Z" fill="#084FC7"/>
<path d="M221.335 209.612C221.442 209.274 221.708 208.971 222.047 208.829C222.705 208.544 223.488 208.847 223.773 209.505L228.47 220.288C228.755 220.946 228.452 221.729 227.794 222.014C227.136 222.299 226.353 221.996 226.068 221.338L221.37 210.555C221.246 210.234 221.246 209.896 221.335 209.612Z" fill="#084FC7"/>
<path d="M243.417 227.156C243.203 227.797 242.954 228.384 242.669 228.936C242.563 229.149 242.456 229.363 242.349 229.558L235.961 227.548C235.641 227.441 235.392 227.227 235.232 226.961C235.054 226.658 234.983 226.267 235.107 225.911C235.321 225.217 236.068 224.843 236.744 225.057L243.417 227.156Z" fill="#084FC7"/>
<path d="M207.331 228.099C207.687 228.064 208.06 228.17 208.345 228.437C208.879 228.918 208.914 229.754 208.434 230.288L200.534 238.989C200.053 239.523 199.217 239.558 198.683 239.078C198.149 238.598 198.114 237.761 198.594 237.227L206.495 228.526C206.726 228.277 207.028 228.135 207.331 228.099Z" fill="#084FC7"/>
<path d="M202.687 208.028C202.331 207.975 202.011 207.761 201.797 207.441C201.406 206.836 201.601 206.017 202.206 205.626L212.171 199.38C212.776 198.989 213.594 199.185 213.986 199.79C214.377 200.395 214.182 201.213 213.577 201.605L203.612 207.85C203.327 208.028 202.989 208.081 202.687 208.028Z" fill="#084FC7"/>
<path d="M209.039 170.163C209.271 170.43 209.413 170.786 209.36 171.177C209.288 171.889 208.63 172.423 207.918 172.334L196.228 171.053C195.516 170.982 194.982 170.323 195.071 169.612C195.142 168.9 195.801 168.366 196.513 168.455L208.203 169.736C208.523 169.772 208.826 169.932 209.039 170.163Z" fill="#084FC7"/>
<path d="M192.046 144.807C192.135 144.451 192.367 144.149 192.705 143.971C193.345 143.633 194.146 143.864 194.484 144.505L200.054 154.861C200.392 155.501 200.16 156.302 199.52 156.64C198.879 156.978 198.078 156.747 197.74 156.106L192.171 145.75C191.993 145.448 191.957 145.11 192.046 144.807Z" fill="#084FC7"/>
<path d="M231.78 242.263C231.032 242.921 230.321 243.509 229.662 244.042L228.132 240.128C228.007 239.808 228.007 239.487 228.132 239.185C228.257 238.847 228.523 238.562 228.879 238.42C229.555 238.153 230.321 238.491 230.588 239.167L231.78 242.263Z" fill="#084FC7"/>
<path d="M124.306 222.334C124.128 222.014 124.092 221.64 124.235 221.267C124.484 220.59 125.231 220.235 125.907 220.484L136.975 224.47C137.651 224.719 138.007 225.466 137.758 226.142C137.509 226.818 136.762 227.174 136.085 226.925L125.018 222.939C124.697 222.85 124.448 222.619 124.306 222.334Z" fill="#084FC7"/>
<path d="M129.715 237.299C130.071 237.299 130.427 237.459 130.694 237.743C131.175 238.277 131.121 239.114 130.587 239.594L121.779 247.388C121.246 247.868 120.409 247.815 119.929 247.281C119.449 246.747 119.502 245.911 120.036 245.43L128.844 237.637C129.093 237.405 129.413 237.299 129.715 237.299Z" fill="#084FC7"/>
<path d="M145.676 249.665C145.89 249.95 146.014 250.324 145.943 250.697C145.819 251.409 145.142 251.889 144.431 251.765L132.847 249.79C132.135 249.665 131.655 248.989 131.779 248.277C131.904 247.566 132.58 247.085 133.292 247.21L144.876 249.185C145.196 249.238 145.481 249.416 145.676 249.665Z" fill="#084FC7"/>
<path d="M155.374 139.594C155.285 139.256 155.32 138.864 155.534 138.544C155.925 137.939 156.744 137.761 157.349 138.152L167.224 144.523C167.829 144.914 168.007 145.733 167.616 146.338C167.224 146.943 166.406 147.121 165.801 146.729L155.925 140.359C155.64 140.163 155.445 139.896 155.374 139.594Z" fill="#084FC7"/>
<path d="M222.776 147.103C223.096 146.925 223.47 146.889 223.843 147.014C224.52 147.263 224.876 148.01 224.644 148.686L220.712 159.772C220.463 160.448 219.715 160.804 219.039 160.572C218.363 160.323 218.007 159.576 218.239 158.9L222.171 147.814C222.278 147.512 222.509 147.263 222.776 147.103Z" fill="#084FC7"/>
<path d="M217.491 132.672L211.424 140.466C210.979 141.035 210.16 141.142 209.591 140.697C209.022 140.252 208.915 139.434 209.36 138.864L214.911 131.747C215.801 132.032 216.673 132.352 217.491 132.672Z" fill="#084FC7"/>
<path d="M158.114 240.199C158.239 240.573 158.559 240.84 158.915 240.911C159.093 240.946 159.288 240.946 159.466 240.875C159.662 240.804 178.683 234.647 198.684 242.939C208.844 247.156 217.883 248.758 225.196 248.615C225.232 248.188 225.267 247.797 225.303 247.405C225.303 247.352 225.321 247.299 225.321 247.263C225.321 247.263 225.73 246.996 226.442 246.498C219.253 246.854 210.054 245.324 199.502 240.964C178.737 232.352 159.591 238.58 158.79 238.847C158.239 239.042 157.936 239.647 158.114 240.199Z" fill="#084FC7"/>
<path d="M203.861 128.188C201.352 132.067 196.192 136.462 185.729 135.715C171.299 134.665 161.797 120.893 158.487 115.234C158.932 115.217 159.181 115.217 159.181 115.217L203.861 128.188Z" fill="#084FC7"/>
<path d="M188.523 153.74C188.95 153.829 189.377 153.882 189.804 153.918C193.79 154.238 197.029 153.081 199.413 150.484C206.353 142.903 203.506 125.608 203.381 124.878C203.274 124.291 202.723 123.9 202.153 124.007C201.566 124.113 201.175 124.665 201.281 125.234C201.317 125.412 204.075 142.227 197.847 149.042C195.908 151.16 193.328 152.067 190 151.8C176.014 150.679 160.338 115.145 160.178 114.789C159.947 114.256 159.306 114.007 158.772 114.238C158.239 114.469 157.989 115.11 158.221 115.644C158.826 117.12 173.701 150.733 188.523 153.74Z" fill="white"/>
<path d="M232.082 139.772C231.157 150.021 233.683 166.943 240.303 179.113C240.142 176.498 240.071 173.847 240.107 171.213C240.107 171.124 240.107 171.035 240.107 170.946C240.107 170.679 240.125 170.412 240.125 170.145C240.356 154.612 241.868 146.729 232.082 139.772Z" fill="#EA9B7A"/>
<path d="M149.857 157.814C144.733 177.601 125.978 193.473 113.167 188.526C113.007 187.423 112.864 186.302 112.704 185.199C112.598 184.469 112.491 183.758 112.366 183.028C111.548 177.654 110.587 172.263 109.501 167.032C104.751 144.22 108.096 120.288 131.21 117.458C132.882 117.245 134.537 117.067 136.156 116.889C147.704 121.818 155.765 135.039 149.857 157.814Z" fill="#EA9B7A"/>
<path d="M152.491 142.725L182.527 252.583L171.815 240.234C175.783 242.334 180.374 243.971 185.463 245.11C190.534 246.249 196.085 246.907 201.868 247.21C207.669 247.512 213.701 247.459 219.876 247.21C226.05 246.961 232.367 246.498 238.772 245.946H238.808C248.256 245.146 256.566 252.138 257.367 261.587C258.132 270.59 251.744 278.58 242.954 280.003C236.353 281.053 229.627 282.05 222.74 282.85C215.854 283.651 208.79 284.238 201.459 284.416C194.146 284.576 186.566 284.309 178.737 283.171C170.925 282.032 162.811 280.003 154.875 276.569C149.804 274.381 146.192 270.217 144.555 265.359L144.181 264.22L108.132 156.177C104.075 144.042 110.64 130.91 122.776 126.853C134.911 122.796 148.043 129.362 152.1 141.498C152.26 141.889 152.384 142.352 152.491 142.725Z" fill="#EA9B7A"/>
<path d="M165.943 249.078C165.64 249.078 165.338 248.918 165.178 248.633C164.929 248.206 165.089 247.672 165.516 247.423C165.8 247.263 172.366 243.562 179.235 243.028C179.733 242.993 180.16 243.348 180.196 243.847C180.231 244.345 179.875 244.772 179.377 244.808C172.918 245.306 166.459 248.936 166.405 248.971C166.245 249.042 166.085 249.078 165.943 249.078Z" fill="#D96C63"/>
<path d="M176.868 245.11C176.708 245.11 176.548 245.074 176.406 244.985C172.26 242.476 167.242 242.085 167.189 242.085C166.69 242.049 166.335 241.622 166.37 241.142C166.406 240.644 166.815 240.288 167.313 240.323C167.527 240.341 172.811 240.733 177.313 243.473C177.74 243.722 177.865 244.274 177.616 244.701C177.456 244.95 177.153 245.11 176.868 245.11Z" fill="#D96C63"/>
<path d="M203.648 187.21C216.94 189.896 222.758 176.16 222.812 176.017C223.043 175.466 222.776 174.843 222.224 174.63C221.673 174.398 221.05 174.665 220.836 175.217C220.623 175.733 215.605 187.459 204.075 185.128C191.957 182.672 169.359 158.847 169.146 158.597C168.737 158.17 168.061 158.153 167.633 158.562C167.206 158.971 167.189 159.647 167.598 160.074C168.523 161.053 190.89 184.612 203.648 187.21Z" fill="#084FC7"/>
<path d="M182.758 100.679C182.758 100.679 161.424 96.6578 155.409 75.1275C149.68 54.6292 154.093 43.9886 160.054 32.921C164.538 24.5758 178.772 13.3124 198.719 17.3515C218.861 21.4263 233.933 31.7822 236.157 48.3481C240.303 79.3446 215.303 117.156 182.758 100.679Z" fill="#39393B"/>
<path d="M156.406 78.4548C156.014 78.4548 155.64 78.259 155.445 77.8854C155.053 77.2092 146.085 61.0704 153.541 39.8248C158.203 26.5507 167.367 20.6254 174.253 17.9742C181.69 15.1094 187.936 15.3941 188.203 15.3941C188.808 15.4297 189.288 15.9457 189.253 16.5685C189.217 17.1735 188.719 17.6539 188.096 17.6183C188.043 17.6183 181.975 17.3692 174.964 20.0738C165.641 23.6859 159.146 30.5721 155.64 40.5543C148.541 60.8035 157.295 76.622 157.384 76.7822C157.687 77.316 157.509 77.9921 156.975 78.2946C156.779 78.4014 156.601 78.4548 156.406 78.4548Z" fill="#FAAF3A"/>
<path d="M224.129 78.7931C224.129 78.7931 231.068 73.3126 232.901 80.5724C234.734 87.8322 229.573 100.733 221.495 96.818L224.129 78.7931Z" fill="#D96C63"/>
<path d="M217.349 92.1383C213.897 93.2771 210.855 96.3376 210.072 100.128C208.933 105.786 212.598 111.302 218.239 112.459C223.897 113.597 229.413 109.932 230.57 104.291C231.424 100.056 229.591 95.8928 226.228 93.5974C225.107 92.8145 223.808 92.2629 222.385 91.9782C222.349 91.9782 222.314 91.9604 222.278 91.9604C222.082 92.6721 222.154 93.2415 222.563 93.6864C223.702 93.9889 224.734 94.5049 225.641 95.181C228.257 97.1739 229.662 100.537 228.969 103.971C228.008 108.74 223.328 111.836 218.559 110.875C213.791 109.914 210.694 105.234 211.655 100.466C212.367 96.996 214.929 94.5405 218.15 93.7575L217.349 92.1383Z" fill="#FAAF3A"/>
<path d="M203.096 109.914L200.196 128.099C200.196 128.099 186.584 141.996 161.726 117.067C168.399 112.103 170.943 100.573 170.16 93.1348C170.16 93.1348 172.118 94.3092 175.142 97.0494C175.73 97.5832 176.495 97.9924 177.224 98.5085C183.79 102.957 193.861 108.775 203.096 109.914Z" fill="#EA9B7A"/>
<path d="M203.096 109.914L201.726 118.526C194.271 115.199 181.086 108.099 175.143 97.0315C175.783 97.4941 176.495 97.9746 177.224 98.4906C183.79 102.957 193.862 108.775 203.096 109.914Z" fill="#39393B"/>
<path d="M230.854 74.416C230.463 76.3377 230.107 78.1704 229.733 79.9142C229.342 81.8003 228.968 83.5797 228.595 85.2523C225.837 97.8324 223.577 104.576 219.911 107.103C201.353 119.861 171.157 94.0245 170.178 93.1882C170.16 93.1704 170.16 93.1704 170.16 93.1704C170.143 91.6936 170.143 90.2167 170.16 88.7754C170.392 76.5334 172.473 65.5369 175.783 55.3767C177.438 44.2735 186.05 35.3767 197.135 33.7041C208.63 31.9781 217.278 38.6329 222.687 41.5689C230.854 46.0173 234.057 58.3839 230.854 74.416Z" fill="#EA9B7A"/>
<path d="M176.423 43.9531C176.423 43.9531 189.413 18.9708 215.32 25.946C241.228 32.9211 242.598 44.9496 243.061 50.9638C243.523 56.9781 229.644 46.3197 229.644 46.3197C229.644 46.3197 229.164 58.3482 224.537 54.6471C218.861 50.0919 212.527 40.2876 212.527 40.2876C212.527 40.2876 197.1 55.4478 182.438 51.3553C174.092 49.0421 176.423 43.9531 176.423 43.9531Z" fill="#39393B"/>
<path d="M208.239 98.9178C204.876 98.9178 202.562 96.5868 202.456 96.4623C202.1 96.0886 202.1 95.5014 202.473 95.1455C202.847 94.7897 203.416 94.7896 203.772 95.1633C203.897 95.2879 206.566 97.9391 210.089 96.7292C210.57 96.569 211.103 96.8181 211.263 97.2986C211.424 97.779 211.175 98.3128 210.694 98.4729C209.84 98.7932 209.021 98.9178 208.239 98.9178Z" fill="#D96C63"/>
<path d="M200.498 83.7932C200.498 83.7932 212.989 87.4943 219.466 87.4943C219.466 87.4943 216.228 96.747 206.975 93.5086C199.769 90.9819 200.498 83.7932 200.498 83.7932Z" fill="white"/>
<path d="M223.683 57.7789C223.683 57.7789 220.445 57.4408 220.961 60.5903C221.495 63.7397 228.523 61.818 232.011 68.117C232.011 68.117 235.374 61.5155 223.683 57.7789Z" fill="#39393B"/>
<path d="M209.253 54.8605C209.253 54.8605 212.367 55.8214 210.659 58.5082C208.951 61.1951 203.221 56.6933 197.563 61.1417C197.563 61.1417 197.047 53.7573 209.253 54.8605Z" fill="#39393B"/>
<path d="M203.63 77.4052C203.328 78.882 200.036 79.4692 196.246 78.7041C192.474 77.939 189.662 76.124 189.965 74.6294C190.267 73.1525 193.559 72.5653 197.349 73.3304C201.121 74.0956 203.933 75.9283 203.63 77.4052Z" fill="#D96C63"/>
<path d="M240.498 78.3839L230.409 76.6579C230.356 77.0849 230.249 77.512 230.16 77.9213C230.142 77.9924 230.124 78.0636 230.089 78.1348L240.249 79.8608C240.658 79.9319 241.05 79.6472 241.121 79.238C241.192 78.8465 240.925 78.4551 240.498 78.3839Z" fill="white"/>
<path d="M213.559 69.7716C213.559 69.2556 213.541 68.7396 213.47 68.2413C213.132 65.5011 211.922 62.9744 210.071 61.0171C208.363 59.22 206.139 57.9032 203.559 57.3338C203.523 57.316 203.47 57.316 203.434 57.2982C197.527 56.0883 191.708 59.1844 189.306 64.4513C189.092 64.9139 188.914 65.3765 188.754 65.857C188.612 66.284 188.505 66.7289 188.398 67.1737C187.722 70.4833 188.381 73.7574 190.035 76.4264C190.605 77.3339 191.281 78.1702 192.046 78.8997C193.719 80.5189 195.836 81.6933 198.274 82.1916C202.384 83.0456 206.423 81.8001 209.324 79.2022C211.281 77.4584 212.722 75.0741 213.292 72.3161C213.292 72.2983 213.292 72.2983 213.292 72.2805C213.47 71.4442 213.559 70.6079 213.559 69.7716ZM198.594 80.7147C198.523 80.6969 198.47 80.6969 198.416 80.6791C195.231 79.9673 192.651 77.9389 191.139 75.2876C189.84 72.9922 189.324 70.252 189.893 67.4762C190.018 66.9068 190.178 66.3552 190.374 65.8214C190.391 65.7858 190.409 65.7502 190.409 65.7146C191.993 61.6043 195.854 58.8107 200.196 58.5616C201.157 58.5082 202.135 58.5616 203.132 58.7751C205.267 59.22 207.117 60.2342 208.594 61.6399C211.299 64.22 212.651 68.099 211.851 72.0136C210.569 78.0634 204.644 81.978 198.594 80.7147Z" fill="white"/>
<path d="M236.174 64.576C235.836 64.398 235.48 64.2379 235.107 64.0777C234.68 63.8998 234.235 63.7574 233.79 63.6151C233.47 63.5261 233.167 63.4371 232.829 63.3838C232.224 63.2592 231.637 63.1881 231.05 63.1525C230.338 63.0991 229.626 63.1169 228.932 63.2058C226.993 63.4194 225.16 64.0599 223.541 65.0742C221.762 66.1774 220.249 67.7254 219.217 69.5938C218.932 70.0742 218.701 70.5724 218.488 71.0706C218.47 71.1062 218.47 71.124 218.452 71.1596C218.185 71.8358 217.972 72.5475 217.811 73.2771C216.797 78.1881 218.772 83.028 222.491 85.9105C223.701 86.8536 225.089 87.5831 226.619 88.028C226.851 88.0991 227.082 88.1703 227.331 88.2059C227.456 88.2415 227.562 88.2593 227.687 88.2949C228.915 88.544 230.142 88.6152 231.335 88.5084C231.53 88.4906 231.726 88.4728 231.904 88.455C232.42 88.3839 232.936 88.2949 233.452 88.1525C234.395 87.9034 235.32 87.5475 236.174 87.1027C239.431 85.3945 241.922 82.2984 242.722 78.4194C243.879 72.7254 241.05 67.1382 236.174 64.576ZM241.228 78.0991C241.174 78.3482 241.121 78.5796 241.05 78.8109C240.961 79.149 240.854 79.4692 240.73 79.8073C239.84 82.1739 238.203 84.0956 236.139 85.3589C235.392 85.8216 234.573 86.1952 233.719 86.4799C233.185 86.6579 232.651 86.7824 232.082 86.8714C231.922 86.907 231.762 86.9248 231.601 86.9426C230.427 87.0849 229.199 87.0493 227.972 86.8002C227.865 86.7824 227.74 86.7468 227.633 86.729C227.562 86.7112 227.491 86.6935 227.438 86.6757C225.641 86.213 224.039 85.3233 222.74 84.1312C222.545 83.9532 222.367 83.7753 222.189 83.5973C219.715 81.0351 218.505 77.3162 219.27 73.5617C219.448 72.7254 219.715 71.9069 220.053 71.1596C221.174 68.7041 223.132 66.8002 225.498 65.6792C226.957 64.9852 228.577 64.6115 230.249 64.6115C230.516 64.6115 230.783 64.6293 231.068 64.6471C231.548 64.6827 232.029 64.7539 232.509 64.8429C232.865 64.914 233.203 65.003 233.541 65.1097C234.004 65.2521 234.448 65.43 234.893 65.6258C235.231 65.7859 235.569 65.9638 235.908 66.1418C239.947 68.5083 242.224 73.2592 241.228 78.0991Z" fill="white"/>
<path d="M173.221 66.7465C173.132 66.7288 173.043 66.6932 172.971 66.6398C172.616 66.4085 172.527 65.9458 172.74 65.6078C177.794 57.7074 189.947 64.8071 190.053 64.8782C190.409 65.0918 190.534 65.5544 190.32 65.9103C190.107 66.2661 189.644 66.3907 189.288 66.1772C189.181 66.106 178.274 59.7537 174.004 66.4263C173.843 66.6754 173.523 66.7999 173.221 66.7465Z" fill="white"/>
<path d="M219.022 71.4977C218.826 71.4621 218.666 71.3376 218.541 71.1774C216.922 68.6863 213.47 69.8073 213.435 69.8073C213.043 69.9319 212.616 69.7184 212.492 69.3269C212.367 68.9354 212.58 68.5084 212.972 68.3838C214.556 67.85 218.025 67.5831 219.823 70.3589C220.054 70.7148 219.947 71.1774 219.591 71.3909C219.413 71.4977 219.218 71.5333 219.022 71.4977Z" fill="white"/>
<g opacity="0.8">
<g opacity="0.8">
<g opacity="0.8">
<g opacity="0.8">
<g opacity="0.8">
<g opacity="0.8">
<g opacity="0.8">
<path opacity="0.8" d="M229.734 79.914C229.342 81.8001 228.968 83.5795 228.595 85.2521C225.161 84.4158 222.687 82.7254 222.972 81.3197C223.274 79.9318 226.228 79.3268 229.734 79.914Z" fill="#D96C63"/>
</g>
</g>
</g>
</g>
</g>
</g>
</g>
<path d="M206.281 69.9496C205.872 71.9958 204.609 73.4549 203.47 73.2236C202.331 72.9923 201.744 71.1595 202.153 69.1133C202.562 67.067 203.826 65.6079 204.965 65.8392C206.103 66.0705 206.691 67.9033 206.281 69.9496Z" fill="#39393B"/>
<path d="M226.459 74.0421C226.05 76.0884 224.787 77.5475 223.648 77.3162C222.509 77.0849 221.922 75.2521 222.331 73.2058C222.741 71.1596 224.004 69.7005 225.143 69.9318C226.282 70.1631 226.869 71.9959 226.459 74.0421Z" fill="#39393B"/>
<path d="M216.032 79.5224C217.011 79.7181 217.705 79.6825 217.758 79.6825C217.989 79.6647 218.221 79.5579 218.381 79.38C218.541 79.2021 218.594 78.953 218.577 78.7216L217.278 69.202C217.206 68.7394 216.779 68.4013 216.317 68.4725C215.854 68.5437 215.516 68.9707 215.587 69.4334L216.744 77.9209C215.89 77.7964 214.609 77.4405 213.452 76.4796C213.096 76.1771 212.545 76.2305 212.242 76.5864C211.94 76.9423 211.993 77.4939 212.349 77.7964C213.612 78.8284 214.982 79.3088 216.032 79.5224Z" fill="#39393B"/>
<path d="M178.506 86.2487C178.363 86.4622 174.413 92.1384 170.196 93.1704C170.178 93.1527 170.178 93.1527 170.178 93.1527C170.143 91.6758 170.16 90.1989 170.178 88.7576C170.321 88.7754 174.342 88.8822 178.506 86.2487Z" fill="#39393B"/>
<path d="M177.634 71.3374C177.634 71.3374 171.691 58.7395 163.986 66.1239C157.634 72.2271 163.185 92.583 174.217 88.2236L177.634 71.3374Z" fill="#EA9B7A"/>
<path d="M163.025 82.2094C159.573 83.3481 156.53 86.4087 155.747 90.1987C154.609 95.8571 158.274 101.373 163.915 102.53C169.573 103.668 175.089 100.003 176.246 94.3624C177.1 90.1275 175.267 85.9638 171.904 83.6684C170.783 82.8855 169.484 82.3339 168.061 82.0492C168.025 82.0492 167.989 82.0314 167.954 82.0314C167.758 82.7432 167.847 83.3126 168.239 83.7574C169.377 84.0599 170.409 84.5759 171.317 85.2521C173.933 87.245 175.338 90.608 174.644 94.0421C173.683 98.8108 169.004 101.907 164.235 100.946C159.466 99.9852 156.37 95.3055 157.331 90.5368C158.025 87.067 160.605 84.6115 163.826 83.8286L163.025 82.2094Z" fill="#FAAF3A"/>
<path d="M173.754 84.7185C173.79 84.7185 173.808 84.7362 173.843 84.7362C174.306 84.7718 174.733 84.4338 174.769 83.9533C175.641 74.4337 168.452 69.6116 168.149 69.4159C167.758 69.149 167.224 69.2736 166.957 69.665C166.69 70.0565 166.815 70.5903 167.206 70.8572C167.473 71.0352 173.843 75.3412 173.061 83.811C173.043 84.238 173.345 84.6295 173.754 84.7185Z" fill="#39393B"/>
<path d="M166.958 78.0458C167.136 78.0813 167.349 78.0635 167.527 77.9568C168.381 77.5119 170.89 76.5155 172.26 77.1739C172.687 77.3874 173.203 77.2095 173.399 76.7824C173.612 76.3554 173.434 75.8393 173.007 75.6436C170.623 74.487 167.136 76.2486 166.744 76.4443C166.317 76.6579 166.157 77.1739 166.388 77.6009C166.495 77.8322 166.726 77.9924 166.958 78.0458Z" fill="#39393B"/>
<path d="M185.285 49.9674C185.285 49.9674 177.296 71.6578 176.869 76.035C176.281 81.9959 168.399 61.5688 176.317 44.131L185.285 49.9674Z" fill="#39393B"/>
<path d="M318.773 509.826H285.872C285.872 509.826 278.257 473.314 275.712 452.851C273.15 432.371 271.833 383.847 271.833 383.847C271.833 383.847 245.623 392.37 190.747 389.15C69.1635 382.05 115.267 292.726 115.267 292.726C119.377 298.402 150.196 306.214 167.384 308.936C220.178 314.007 260.303 322.975 287.776 334.826C294.395 337.673 300.267 340.698 305.427 343.883C312.047 347.957 316.193 360.36 318.702 376.641C326.193 425.591 318.773 509.826 318.773 509.826Z" fill="#39393B"/>
<path d="M289.947 492.246C289.395 492.246 288.915 491.855 288.79 491.303C284.039 467.816 282.456 438.581 281.175 415.093C280.107 395.609 279.111 377.21 276.602 375.004C274.573 373.207 266.157 374.613 255.516 376.374C234.324 379.897 202.295 385.2 166.993 376.997C147.758 372.513 133.612 363.171 124.964 349.221C110.035 325.164 116.85 295.324 116.921 295.022C117.064 294.381 117.704 293.99 118.345 294.15C118.986 294.292 119.377 294.933 119.217 295.573C119.146 295.858 112.58 324.773 126.993 347.993C135.302 361.392 148.95 370.378 167.544 374.701C202.402 382.815 234.146 377.549 255.16 374.061C267.74 371.979 275.338 370.716 278.203 373.242C281.299 375.983 282.171 389.435 283.559 414.969C284.84 438.385 286.424 467.513 291.139 490.841C291.264 491.481 290.854 492.104 290.214 492.228C290.107 492.228 290.036 492.246 289.947 492.246Z" fill="#585859"/>
<path d="M319.395 492.851H319.377L282.794 492.068C282.135 492.05 281.619 491.516 281.637 490.858C281.655 490.2 282.189 489.684 282.847 489.701L319.431 490.484C320.089 490.502 320.605 491.036 320.587 491.694C320.552 492.353 320.036 492.851 319.395 492.851Z" fill="#585859"/>
<path d="M317.866 551.979H294.645L290.179 524.737L287.723 509.826H316.567L317.029 524.737L317.866 551.979Z" fill="#EA9B7A"/>
<path d="M317.865 551.979H294.644L291.317 531.695L290.178 524.737H317.029L317.242 531.944L317.865 551.979Z" fill="#FAAF3A"/>
<path d="M317.242 531.944L291.317 531.695L290.178 524.737H317.029L317.242 531.944Z" fill="#C77E2E"/>
<path d="M375.161 588.652H287.331C286.673 587.46 286.317 585.787 286.175 583.777C285.623 576.339 287.99 564.488 289.146 557.015C289.289 556.143 289.413 555.325 289.502 554.595C289.662 553.35 289.769 552.3 289.769 551.535C289.769 545.431 295.161 546.481 295.161 546.481C304.04 555.2 314.111 542.14 319.983 546.41C319.983 546.41 320.214 546.588 320.766 546.997C321.264 547.389 322.011 547.994 323.043 548.866C324.538 550.111 326.638 551.926 329.485 554.488C336.46 560.77 348.31 564.898 358.399 569.115C359.68 569.649 360.873 570.182 361.994 570.734C362.83 571.143 363.631 571.552 364.378 571.944C372.634 576.392 375.25 580.663 375.855 583.759C376.442 586.73 375.161 588.652 375.161 588.652Z" fill="#0875F7"/>
<path d="M364.396 571.962C362.136 573.759 357.1 577.371 353.061 577.371C352.883 577.371 352.705 577.371 352.527 577.353C349.68 577.122 339.218 571.979 330.694 567.3C325.819 564.613 321.353 561.979 318.15 559.862C312.901 556.392 311.976 555.076 311.78 554.15C311.015 550.68 316.744 548.278 320.766 547.015C321.264 547.406 322.011 548.011 323.043 548.883C318.061 550.236 313.951 552.371 314.146 553.581C314.645 554.613 319.84 558.563 332.26 565.378C341.744 570.574 350.73 574.755 352.723 574.933C355.428 575.147 359.396 572.691 361.993 570.752C362.865 571.143 363.648 571.552 364.396 571.962Z" fill="#084FC7"/>
<path d="M375.161 588.652H287.331C286.673 587.46 286.317 585.787 286.175 583.777H375.873C376.442 586.73 375.161 588.652 375.161 588.652Z" fill="#084FC7"/>
<path d="M296.3 588.652H293.684C296.282 585.681 298.719 581.108 298.399 574.595C297.972 565.912 292.776 560.075 289.146 557.015C289.289 556.143 289.413 555.325 289.502 554.595C293.399 557.567 299.965 564.097 300.481 574.488C300.801 580.716 298.755 585.36 296.3 588.652Z" fill="#084FC7"/>
<path d="M328.026 559.684C327.385 559.684 326.78 559.239 326.62 558.581C326.424 557.798 326.905 557.015 327.67 556.819L333.15 555.449C333.933 555.254 334.716 555.734 334.912 556.499C335.107 557.282 334.627 558.065 333.862 558.261L328.381 559.631C328.257 559.666 328.132 559.684 328.026 559.684Z" fill="white"/>
<path d="M322.563 555.111C321.904 555.111 321.317 554.666 321.157 554.008C320.961 553.225 321.442 552.442 322.207 552.246L327.687 550.876C328.47 550.68 329.253 551.161 329.449 551.926C329.645 552.709 329.164 553.492 328.399 553.688L322.919 555.058C322.794 555.093 322.687 555.111 322.563 555.111Z" fill="white"/>
<path d="M333.506 562.869C332.866 562.869 332.261 562.424 332.1 561.766C331.905 560.983 332.385 560.2 333.15 560.022L338.631 558.652C339.414 558.456 340.196 558.937 340.392 559.702C340.588 560.485 340.108 561.268 339.342 561.463L333.862 562.834C333.737 562.851 333.613 562.869 333.506 562.869Z" fill="white"/>
<path d="M338.987 565.93C338.346 565.93 337.741 565.485 337.581 564.827C337.385 564.044 337.866 563.261 338.631 563.083L344.111 561.713C344.894 561.517 345.677 561.997 345.873 562.762C346.068 563.545 345.588 564.328 344.823 564.524L339.342 565.894C339.218 565.912 339.111 565.93 338.987 565.93Z" fill="white"/>
<path d="M344.965 568.759C344.325 568.759 343.72 568.314 343.559 567.656C343.364 566.873 343.844 566.09 344.609 565.912L350.09 564.542C350.873 564.346 351.656 564.826 351.851 565.592C352.047 566.374 351.567 567.157 350.801 567.353L345.321 568.723C345.196 568.759 345.09 568.759 344.965 568.759Z" fill="white"/>
<path d="M351.46 571.179C350.801 571.179 350.214 570.734 350.054 570.075C349.858 569.293 350.339 568.51 351.104 568.314L356.584 566.944C357.367 566.748 358.15 567.229 358.346 567.994C358.542 568.777 358.061 569.559 357.296 569.755L351.816 571.125C351.691 571.161 351.566 571.179 351.46 571.179Z" fill="white"/>
<path d="M439.948 291.409V298.705C439.948 302.904 437.421 306.303 434.289 306.303H40.2135C37.0819 306.303 34.5552 302.904 34.5552 298.705V291.409C34.5552 287.21 37.0819 283.811 40.2135 283.811H434.272C437.403 283.811 439.948 287.21 439.948 291.409Z" fill="#21B573"/>
<path d="M439.948 293.722H34.5552V297.068H439.948V293.722Z" fill="#217C58"/>
<path d="M428.097 325.039H57.6868C56.032 325.039 54.6797 323.687 54.6797 322.032V306.196H431.104V322.032C431.104 323.687 429.752 325.039 428.097 325.039Z" fill="#217C58"/>
<path d="M411.46 417.993H80.1958V430.911H411.46V417.993Z" fill="#217C58"/>
<path d="M56.3168 590.947L120.445 325.039H97.9183L33.79 590.947H56.3168Z" fill="#21B573"/>
<path d="M434.912 590.947L370.766 325.039H393.293L457.421 590.947H434.912Z" fill="#21B573"/>
<path d="M70.5194 222.7L63.5718 223.764L71.6025 276.197L78.5501 275.133L70.5194 222.7Z" fill="#FAAF3A"/>
<path d="M70.5333 222.672L63.5938 223.74L65.124 218.437L65.9069 215.68L67.4906 218.064L70.5333 222.672Z" fill="#EA9B7A"/>
<path d="M77.9599 271.316L71.0122 272.38L71.5968 276.197L78.5445 275.133L77.9599 271.316Z" fill="#39393B"/>
<path d="M78.5765 278.206L72.5444 279.132C72.2953 279.167 72.0462 278.989 72.0106 278.74L71.6191 276.16L78.5765 275.093L78.9679 277.673C79.0035 277.94 78.8256 278.171 78.5765 278.206Z" fill="#DF615C"/>
<path d="M67.4911 218.064L65.1245 218.437L65.9074 215.68L67.4911 218.064Z" fill="#39393B"/>
<path d="M77.5668 268.576L70.6191 269.64L71.0367 272.367L77.9844 271.303L77.5668 268.576Z" fill="#C77E2E"/>
<path d="M65.7118 226.053L71.6549 264.879C71.7083 265.181 71.9752 265.377 72.2599 265.324C72.5446 265.27 72.7581 265.003 72.7047 264.719L66.7616 225.893C66.7083 225.608 66.4414 225.395 66.1567 225.448C65.872 225.484 65.6584 225.768 65.7118 226.053Z" fill="#C77E2E"/>
<path d="M68.4345 225.644L74.3776 264.469C74.4309 264.754 74.6978 264.968 74.9825 264.914C75.285 264.861 75.4808 264.594 75.4274 264.309L69.4843 225.484C69.4309 225.199 69.164 224.985 68.8793 225.039C68.5946 225.074 68.3811 225.341 68.4345 225.644Z" fill="#C77E2E"/>
<path d="M83.1164 222.912L76.0879 222.935L76.2623 275.978L83.2908 275.955L83.1164 222.912Z" fill="#21B573"/>
<path d="M83.1139 222.921L76.0854 222.939L78.3808 217.921L79.573 215.306L80.783 217.904L83.1139 222.921Z" fill="#EA9B7A"/>
<path d="M83.2687 272.112L76.2402 272.135L76.2529 275.996L83.2814 275.973L83.2687 272.112Z" fill="#39393B"/>
<path d="M82.829 279.025L76.7258 279.043C76.4589 279.043 76.2632 278.829 76.2632 278.58V275.982L83.2917 275.964V278.562C83.2917 278.811 83.0959 279.025 82.829 279.025Z" fill="#DF615C"/>
<path d="M80.783 217.904L78.3809 217.921L79.573 215.306L80.783 217.904Z" fill="#39393B"/>
<path d="M83.2526 269.336L76.2241 269.359L76.2332 272.117L83.2617 272.094L83.2526 269.336Z" fill="#217C58"/>
<path d="M77.8291 225.555L77.9537 264.826C77.9537 265.128 78.2028 265.359 78.4875 265.359C78.79 265.359 79.0213 265.11 79.0213 264.826L78.8967 225.555C78.8967 225.252 78.6476 225.021 78.3629 225.021C78.0782 225.003 77.8291 225.252 77.8291 225.555Z" fill="#217C58"/>
<path d="M80.5874 225.537L80.712 264.808C80.712 265.11 80.9611 265.341 81.2458 265.341C81.5483 265.341 81.7796 265.092 81.7796 264.808L81.655 225.537C81.655 225.235 81.4059 225.003 81.1212 225.003C80.8365 225.003 80.5874 225.235 80.5874 225.537Z" fill="#217C58"/>
<path d="M88.3011 222.649L80.8433 275.167L87.8022 276.155L95.26 223.637L88.3011 222.649Z" fill="#0875F7"/>
<path d="M95.2493 223.669L88.292 222.672L91.2813 218.028L92.8472 215.626L93.6657 218.366L95.2493 223.669Z" fill="#EA9B7A"/>
<path d="M88.3617 272.38L81.4028 271.392L80.8599 275.215L87.8189 276.203L88.3617 272.38Z" fill="#39393B"/>
<path d="M86.9041 279.149L80.8721 278.295C80.6229 278.26 80.445 278.028 80.4806 277.762L80.8543 275.181L87.8116 276.178L87.4379 278.758C87.3845 279.007 87.1532 279.185 86.9041 279.149Z" fill="#DF615C"/>
<path d="M93.6656 218.366L91.2812 218.028L92.8471 215.626L93.6656 218.366Z" fill="#39393B"/>
<path d="M81.7801 268.631L81.3921 271.361L88.351 272.35L88.7391 269.62L81.7801 268.631Z" fill="#084FC7"/>
<path d="M89.6442 225.502L84.1282 264.381C84.0926 264.683 84.2883 264.95 84.5908 264.986C84.8933 265.021 85.1602 264.826 85.1958 264.523L90.7118 225.644C90.7474 225.342 90.5517 225.075 90.2492 225.039C89.9645 225.004 89.6976 225.217 89.6442 225.502Z" fill="#084FC7"/>
<path d="M92.3844 225.893L86.8684 264.772C86.8328 265.075 87.0286 265.342 87.3311 265.377C87.6336 265.413 87.9005 265.217 87.936 264.915L93.4521 226.036C93.4877 225.733 93.2919 225.466 92.9894 225.431C92.6869 225.395 92.42 225.591 92.3844 225.893Z" fill="#084FC7"/>
<path d="M97.5447 243.9L97.171 246.747L96.8329 249.327L96.3347 253.242L95.9966 255.804L95.4984 259.754L95.1603 262.281L94.6443 266.267L94.324 268.758L93.808 272.779L93.4877 275.235L92.9717 279.292L92.6514 281.712L92.3845 283.811H64.7332L64.4663 281.712L64.146 279.292L63.63 275.235L63.3097 272.779L62.7937 268.758L62.4734 266.267L61.9574 262.281L61.6371 259.754L61.1211 255.804L60.8008 253.242L60.2848 249.327L59.9467 246.747L59.5908 243.9H97.5447Z" fill="#DF615C"/>
<path d="M97.1711 246.747L96.833 249.327H60.2848L59.9468 246.747H97.1711Z" fill="#B11722"/>
<path d="M96.3347 253.242L95.9966 255.804H61.1211L60.8008 253.242H96.3347Z" fill="#B11722"/>
<path d="M95.4985 259.754L95.1604 262.281H61.9575L61.6372 259.754H95.4985Z" fill="#B11722"/>
<path d="M94.6445 266.267L94.3243 268.758H62.7939L62.4736 266.267H94.6445Z" fill="#B11722"/>
<path d="M93.8079 272.779L93.4876 275.235H63.6299L63.3096 272.779H93.8079Z" fill="#B11722"/>
<path d="M92.9717 279.292L92.6514 281.712H64.4663L64.146 279.292H92.9717Z" fill="#B11722"/>
<path d="M437.652 142.797L414.075 242.512L413.453 245.128L411.869 251.836C411.175 254.754 408.595 256.801 405.606 256.801H246.762C242.598 256.801 239.537 252.922 240.498 248.882L266.281 139.825C266.975 136.925 269.555 134.879 272.545 134.879H431.371C435.534 134.879 438.595 138.758 437.652 142.797Z" fill="#39393B"/>
<path d="M414.058 242.495L413.453 245.128H248.523V242.495H414.058Z" fill="#585859"/>
<path d="M310.765 159.541C309.449 166.605 302.651 172.334 295.587 172.334C288.523 172.334 283.861 166.605 285.178 159.541C286.495 152.477 293.292 146.747 300.356 146.747C307.438 146.747 312.082 152.477 310.765 159.541Z" fill="#FAAF3A"/>
<path d="M296.317 157.103C296.05 158.509 295.338 159.665 294.733 159.665C294.111 159.665 293.826 158.526 294.093 157.103C294.36 155.697 295.071 154.541 295.676 154.541C296.299 154.541 296.584 155.679 296.317 157.103Z" fill="#39393B"/>
<path d="M302.99 157.103C302.723 158.509 302.011 159.665 301.406 159.665C300.801 159.665 300.499 158.526 300.766 157.103C301.032 155.697 301.744 154.541 302.349 154.541C302.972 154.541 303.257 155.679 302.99 157.103Z" fill="#39393B"/>
<path d="M296.922 165.786C291.424 165.786 291.192 160.288 291.192 160.234C291.175 159.932 291.424 159.629 291.744 159.576C292.064 159.505 292.313 159.701 292.331 160.003C292.331 160.199 292.545 164.683 297.153 164.683C301.744 164.683 303.63 160.199 303.719 160.003C303.844 159.701 304.182 159.523 304.466 159.576C304.751 159.647 304.893 159.932 304.769 160.234C304.715 160.27 302.42 165.786 296.922 165.786Z" fill="#39393B"/>
<path d="M384.2 219.292C384.342 225.911 395.552 234.203 395.552 234.203C395.552 234.203 408.577 225.911 410.161 219.292C411.869 212.121 403.684 209.914 397.616 215.324C392.723 209.914 384.04 212.121 384.2 219.292Z" fill="#DF615C"/>
<path d="M360.463 200.092C359.698 206.961 353.524 212.512 346.673 212.512C339.823 212.512 334.858 206.943 335.623 200.092C336.388 193.224 342.563 187.672 349.413 187.672C356.282 187.672 361.228 193.242 360.463 200.092Z" fill="#585859"/>
<path d="M278.844 134.879L251.388 256.801H246.762C242.598 256.801 239.537 252.922 240.498 248.882L266.281 139.825C266.975 136.925 269.555 134.861 272.545 134.861H278.844V134.879Z" fill="#585859"/>
<path d="M324.84 256.801L320.018 283.901H335.943L340.765 256.801H324.84Z" fill="white"/>
<path d="M296.21 279.239L299.466 274.666C300.623 273.029 302.509 272.068 304.52 272.068H348.15C350.463 272.068 352.58 273.349 353.648 275.395L355.837 279.594C356.869 281.552 355.445 283.918 353.221 283.918H298.612C296.21 283.9 294.822 281.178 296.21 279.239Z" fill="white"/>
<path d="M205.303 283.882H336.371L337.794 278.936C338.684 275.822 336.353 272.726 333.114 272.726H212.171C210 272.726 208.096 274.167 207.491 276.249L205.303 283.882Z" fill="white"/>
<path d="M377.154 102.316L319.182 102.281C316.94 102.281 315.107 100.448 315.107 98.2059L315.125 62.583C315.125 60.341 316.958 58.5083 319.2 58.5083L377.172 58.5439C379.414 58.5439 381.246 60.3766 381.246 62.6186L381.229 98.2415C381.229 100.501 379.414 102.316 377.154 102.316Z" fill="#DF615C"/>
<path d="M373.702 95.7504L368.417 115.715L359.182 96.9426L373.702 95.7504Z" fill="#DF615C"/>
<path d="M362.83 77.1915C361.655 84.6648 347.687 94.0243 347.687 94.0243C347.687 94.0243 334.253 84.647 333.488 77.1559C332.652 69.042 342.26 66.5687 348.292 72.6897C354.645 66.5865 364.111 69.0776 362.83 77.1915Z" fill="white"/>
</svg>
