<svg width="694" height="551" viewBox="0 0 694 551" fill="none" xmlns="http://www.w3.org/2000/svg">
<path d="M590.688 495.189C590.688 497.861 588.517 500.032 585.844 500.032C583.171 500.032 581 497.861 581 495.189C581 492.516 583.171 490.345 585.844 490.345C588.517 490.345 590.688 492.51 590.688 495.189Z" stroke="#4D2C5E" stroke-opacity="0.1" stroke-width="2" stroke-miterlimit="10" stroke-linecap="round" stroke-linejoin="round"/>
<path d="M637.681 537.197C640.356 537.197 642.524 535.028 642.524 532.353C642.524 529.678 640.356 527.51 637.681 527.51C635.005 527.51 632.837 529.678 632.837 532.353C632.837 535.028 635.005 537.197 637.681 537.197Z" stroke="#4D2C5E" stroke-opacity="0.1" stroke-width="2" stroke-miterlimit="10" stroke-linecap="round" stroke-linejoin="round"/>
<path d="M619.445 522.395C625.15 522.395 629.775 517.77 629.775 512.065C629.775 506.36 625.15 501.735 619.445 501.735C613.74 501.735 609.115 506.36 609.115 512.065C609.115 517.77 613.74 522.395 619.445 522.395Z" stroke="#4D2C5E" stroke-opacity="0.1" stroke-width="2" stroke-miterlimit="10" stroke-linecap="round" stroke-linejoin="round"/>
<path d="M637.444 512.065L633.999 518.087L632.172 524.792L625.473 526.613L619.445 530.064L613.417 526.613L606.713 524.792L604.892 518.087L601.441 512.065L604.892 506.037L606.713 499.333L613.417 497.512L619.445 494.061L625.473 497.512L632.172 499.333L633.999 506.037L637.444 512.065Z" stroke="#4D2C5E" stroke-opacity="0.1" stroke-width="2" stroke-miterlimit="10" stroke-linecap="round" stroke-linejoin="round"/>
<path d="M632.837 532.353C632.837 529.68 635.008 527.509 637.68 527.509C639.124 527.509 640.421 528.147 641.306 529.15C644.994 524.436 647.198 518.51 647.198 512.06C647.198 496.728 634.771 484.3 619.439 484.3C604.108 484.3 591.68 496.728 591.68 512.06C591.68 527.391 604.108 539.819 619.439 539.819C624.83 539.819 629.854 538.279 634.111 535.624C633.327 534.761 632.837 533.616 632.837 532.353Z" stroke="#4D2C5E" stroke-opacity="0.1" stroke-width="2" stroke-miterlimit="10" stroke-linecap="round" stroke-linejoin="round"/>
<path d="M619.445 474.5C606.493 474.5 595.069 481.058 588.319 491.033C589.735 491.879 590.688 493.424 590.688 495.194C590.688 497.867 588.517 500.038 585.844 500.038C585.184 500.038 584.558 499.903 583.989 499.666C582.63 503.551 581.886 507.718 581.886 512.065C581.886 532.81 598.706 549.63 619.451 549.63C640.195 549.63 657.015 532.81 657.015 512.065C657.015 491.321 640.19 474.5 619.445 474.5Z" stroke="#4D2C5E" stroke-opacity="0.1" stroke-width="2" stroke-miterlimit="10" stroke-linecap="round" stroke-linejoin="round"/>
<path d="M190.842 79.7261L167.536 71.8106C165.073 70.9763 163.758 68.3 164.593 65.8373C165.427 63.3745 168.103 62.0598 170.559 62.894L193.865 70.8095C196.328 71.6438 197.643 74.3201 196.808 76.7761C195.974 79.2456 193.305 80.567 190.842 79.7261Z" stroke="#4D2C5E" stroke-opacity="0.1" stroke-width="3" stroke-miterlimit="10"/>
<path d="M187.778 88.7495L164.472 80.834C162.01 79.9997 160.695 77.3234 161.529 74.8673C162.363 72.4046 165.04 71.0898 167.502 71.924L190.808 79.8329C193.271 80.6671 194.586 83.3435 193.752 85.8062C192.911 88.269 190.241 89.5837 187.778 88.7495Z" stroke="#4D2C5E" stroke-opacity="0.1" stroke-width="3" stroke-miterlimit="10"/>
<path d="M167.062 38.5535C167.089 38.6336 167.109 38.707 167.135 38.7871C167.656 40.449 170.726 50.9807 169.445 62.667L194.446 70.9163C200.372 60.7649 209.109 54.1375 210.517 53.1097C210.584 53.063 210.651 53.0163 210.711 52.9696C211.391 52.4824 212.052 51.9618 212.693 51.4078C216.457 48.1575 219.42 43.8794 221.089 38.8205C226.008 23.9239 217.919 7.85928 203.022 2.94046C188.125 -1.97835 172.061 6.11067 167.142 21.0073C165.467 26.0729 165.3 31.2721 166.395 36.1241C166.581 36.9384 166.802 37.7526 167.062 38.5535Z" stroke="#4D2C5E" stroke-opacity="0.1" stroke-width="3" stroke-miterlimit="10"/>
<path d="M165.747 81.3813C165.467 86.3201 168.51 91.0253 173.436 92.6538C178.295 94.2556 183.467 92.3535 186.217 88.329L165.747 81.3813Z" stroke="#4D2C5E" stroke-opacity="0.1" stroke-width="3" stroke-miterlimit="10"/>
<path d="M177.273 65.1165L184.701 42.6047C185.436 40.3889 184.228 37.9995 182.012 37.2654C179.796 36.5312 177.407 37.7393 176.672 39.9551C175.938 42.1709 177.146 44.5602 179.362 45.2944L188.279 48.2376" stroke="#4D2C5E" stroke-opacity="0.1" stroke-width="3" stroke-miterlimit="10"/>
<path d="M187.071 68.3534L194.499 45.8417C195.233 43.6259 197.623 42.4245 199.838 43.152C202.054 43.8862 203.256 46.2755 202.528 48.4913C201.794 50.7071 199.405 51.9085 197.189 51.181L188.272 48.2377" stroke="#4D2C5E" stroke-opacity="0.1" stroke-width="3" stroke-miterlimit="10"/>
<path d="M226.368 46.5758L233.897 49.0652" stroke="#4D2C5E" stroke-opacity="0.1" stroke-width="3" stroke-miterlimit="10" stroke-linecap="round"/>
<path d="M229.818 37.0919L237.66 35.9106" stroke="#4D2C5E" stroke-opacity="0.1" stroke-width="3" stroke-miterlimit="10" stroke-linecap="round"/>
<path d="M221.102 54.7115L226.695 60.3311" stroke="#4D2C5E" stroke-opacity="0.1" stroke-width="3" stroke-miterlimit="10" stroke-linecap="round"/>
<path d="M156.443 23.4967L148.915 21.0139" stroke="#4D2C5E" stroke-opacity="0.1" stroke-width="3" stroke-miterlimit="10" stroke-linecap="round"/>
<path d="M159.32 13.8193L153.727 8.19965" stroke="#4D2C5E" stroke-opacity="0.1" stroke-width="3" stroke-miterlimit="10" stroke-linecap="round"/>
<path d="M155.836 33.1675L148 34.3488" stroke="#4D2C5E" stroke-opacity="0.1" stroke-width="3" stroke-miterlimit="10" stroke-linecap="round"/>
<path d="M77.9934 259.079L8.7889 238.406C3.75563 236.904 0.898743 231.607 2.40051 226.574L16.2215 180.289C17.7232 175.256 23.0205 172.399 28.0537 173.9L97.2582 194.573C102.292 196.075 105.148 201.372 103.647 206.406L89.8257 252.69C88.318 257.718 83.0208 260.581 77.9934 259.079Z" stroke="#4D2C5E" stroke-opacity="0.1" stroke-width="4" stroke-miterlimit="10" stroke-linecap="round"/>
<path d="M4.03125 221.101L91.4564 247.217" stroke="#4D2C5E" stroke-opacity="0.1" stroke-width="4" stroke-miterlimit="10" stroke-linecap="round"/>
<path d="M47.9583 241.744C47.5828 242.999 46.257 243.715 45.0017 243.34C43.7463 242.964 43.0306 241.638 43.4061 240.383C43.7815 239.128 45.1073 238.412 46.3626 238.787C47.618 239.163 48.3337 240.489 47.9583 241.744Z" fill="#4D2C5E"/>
<path d="M53.1988 251.679L33.5981 245.825L30.9572 254.667L50.5579 260.521L53.1988 251.679Z" stroke="#4D2C5E" stroke-opacity="0.1" stroke-width="4" stroke-miterlimit="10" stroke-linecap="round"/>
<path d="M23.6895 253.001L57.5262 263.109" stroke="#4D2C5E" stroke-opacity="0.1" stroke-width="4" stroke-miterlimit="10" stroke-linecap="round"/>
<path d="M613.28 81.3356C634.974 81.3356 652.56 72.9995 652.56 62.7165C652.56 52.4334 634.974 44.0973 613.28 44.0973C591.587 44.0973 574 52.4334 574 62.7165C574 72.9995 591.587 81.3356 613.28 81.3356Z" stroke="#4D2C5E" stroke-opacity="0.1" stroke-width="3" stroke-miterlimit="10" stroke-linecap="round" stroke-linejoin="round"/>
<path d="M629.165 72.4218C640.446 53.8932 642.471 34.538 633.688 29.1908C624.906 23.8436 608.641 34.5293 597.36 53.0579C586.079 71.5865 584.054 90.9417 592.837 96.2889C601.62 101.636 617.885 90.9505 629.165 72.4218Z" stroke="#4D2C5E" stroke-opacity="0.1" stroke-width="3" stroke-miterlimit="10" stroke-linecap="round" stroke-linejoin="round"/>
<path d="M633.681 96.2805C642.463 90.9333 640.438 71.5781 629.158 53.0495C617.877 34.5209 601.612 23.8352 592.829 29.1824C584.047 34.5296 586.072 53.8848 597.352 72.4134C608.633 90.9421 624.898 101.628 633.681 96.2805Z" stroke="#4D2C5E" stroke-opacity="0.1" stroke-width="3" stroke-miterlimit="10" stroke-linecap="round" stroke-linejoin="round"/>
<path d="M613.28 67.6452C616.002 67.6452 618.209 65.4385 618.209 62.7164C618.209 59.9944 616.002 57.7877 613.28 57.7877C610.558 57.7877 608.352 59.9944 608.352 62.7164C608.352 65.4385 610.558 67.6452 613.28 67.6452Z" stroke="#4D2C5E" stroke-opacity="0.1" stroke-width="3" stroke-miterlimit="10" stroke-linecap="round" stroke-linejoin="round"/>
<path d="M92.2906 513.143L59.8561 520.63L58.3976 514.308C58.0627 512.842 58.9699 511.384 60.4353 511.042L87.5664 504.776C89.0318 504.441 90.4902 505.348 90.8321 506.813L92.2906 513.143Z" stroke="#4D2C5E" stroke-opacity="0.1" stroke-width="3" stroke-miterlimit="10" stroke-linecap="round"/>
<path d="M81.6296 479.144C95.9259 467.617 98.1709 446.683 86.6438 432.386C75.1168 418.09 54.1827 415.845 39.8863 427.372C25.5899 438.899 23.345 459.833 34.8721 474.13C46.3992 488.426 67.3332 490.671 81.6296 479.144Z" stroke="#4D2C5E" stroke-opacity="0.1" stroke-width="3" stroke-miterlimit="10"/>
<path d="M76.2338 482.676L45.2228 423.85L41.35 416.711C21.1342 427.367 13.3884 452.391 24.0441 472.606C34.6997 492.822 59.7234 500.568 79.9392 489.912L76.1501 482.725" stroke="#4D2C5E" stroke-opacity="0.1" stroke-width="3" stroke-miterlimit="10" stroke-linecap="round" stroke-linejoin="round"/>
<path d="M52.0574 436.74C62.21 431.387 68.9147 424.154 67.0327 420.585C65.1508 417.015 55.3948 418.461 45.2422 423.814C35.0897 429.167 28.385 436.4 30.267 439.969C32.1489 443.538 41.9048 442.093 52.0574 436.74Z" stroke="#4D2C5E" stroke-opacity="0.1" stroke-width="3" stroke-miterlimit="10"/>
<path d="M54.4409 485.907C61.6075 487.288 69.2766 486.346 76.2338 482.676C83.191 479.005 88.306 473.213 91.2159 466.521C84.0493 465.14 76.3803 466.082 69.4231 469.752C62.4589 473.423 57.3508 479.215 54.4409 485.907Z" stroke="#4D2C5E" stroke-opacity="0.1" stroke-width="3" stroke-miterlimit="10"/>
<path d="M76.2593 482.64C84.38 478.358 84.0199 461.718 75.455 445.473C66.89 429.229 53.3635 419.531 45.2428 423.812C37.1222 428.094 37.4824 444.734 46.0473 460.978C54.6123 477.223 68.1386 486.921 76.2593 482.64Z" stroke="#4D2C5E" stroke-opacity="0.1" stroke-width="3" stroke-miterlimit="10"/>
<path d="M31.3154 468.768L90.1413 437.757" stroke="#4D2C5E" stroke-opacity="0.1" stroke-width="3" stroke-miterlimit="10"/>
<path d="M70.3862 493.534L73.8194 507.853" stroke="#4D2C5E" stroke-opacity="0.1" stroke-width="3" stroke-miterlimit="10"/>
<path d="M55.9624 521.963L97.308 512.047" stroke="#4D2C5E" stroke-opacity="0.1" stroke-width="3" stroke-miterlimit="10" stroke-linecap="round"/>
<path d="M669.73 403.524L687.035 386.219L639.085 338.269L621.78 355.574L669.73 403.524Z" stroke="#4D2C5E" stroke-opacity="0.1" stroke-width="3" stroke-miterlimit="10" stroke-linecap="round" stroke-linejoin="round"/>
<path d="M691.713 408.205L687.029 386.216L669.723 403.521L691.713 408.205Z" stroke="#4D2C5E" stroke-opacity="0.1" stroke-width="3" stroke-miterlimit="10" stroke-linecap="round" stroke-linejoin="round"/>
<path d="M689.527 397.946L681.446 406.019" stroke="#4D2C5E" stroke-opacity="0.1" stroke-width="3" stroke-miterlimit="10" stroke-linecap="round" stroke-linejoin="round"/>
<path d="M616.68 342.381L625.881 333.18C628.12 330.941 631.746 330.941 633.985 333.18L639.073 338.268L621.768 355.573L616.68 350.485C614.441 348.246 614.441 344.613 616.68 342.381Z" stroke="#4D2C5E" stroke-opacity="0.1" stroke-width="3" stroke-miterlimit="10" stroke-linecap="round" stroke-linejoin="round"/>
<path d="M643.75 342.937L626.445 360.25" stroke="#4D2C5E" stroke-opacity="0.1" stroke-width="3" stroke-miterlimit="10" stroke-linecap="round" stroke-linejoin="round"/>
<path d="M678.376 394.868L635.098 351.597" stroke="#4D2C5E" stroke-opacity="0.1" stroke-width="3" stroke-miterlimit="10" stroke-linecap="round" stroke-linejoin="round"/>
</svg>
