<svg width="169" height="177" viewBox="0 0 169 177" fill="none" xmlns="http://www.w3.org/2000/svg">
<path fill-rule="evenodd" clip-rule="evenodd" d="M16.3616 68.6905C17.3381 69.6505 18.89 69.6357 19.8579 68.673C31.4609 57.5129 43.678 51.8362 56.1347 51.694C68.264 51.5571 80.518 56.8191 92.5405 67.2449C95.2129 69.5206 99.3437 74.2587 102.977 79.853C99.9284 84.2385 97.8967 89.432 96.8935 94.4356C95.4139 101.825 96.4913 108.62 98.9299 111.985C100.281 113.849 102.024 114.991 104.061 115.467C106.669 116.073 110.212 115.532 114.279 112.083C119.889 107.301 121.253 100.474 119.577 92.9601C118.692 89.0101 116.904 84.865 114.678 80.8816C117.254 78.8251 120.459 77.6355 124.36 78.0638C132.617 78.9144 138.808 85.6943 143.211 93.6712C147.03 100.572 151.631 110.767 150.415 118.867C150.003 121.62 148.799 123.986 151.071 126.236C154.549 129.717 157.738 126.113 158.308 122.333C159.53 114.21 156.635 104.426 153.778 96.9333C148.534 83.1446 138.694 70.7429 125.406 69.0331C119.177 68.2602 113.892 69.9166 109.61 72.9943C105.546 67.3547 101.164 62.6887 98.2878 60.3469C84.0584 48.9922 69.7377 43.7117 55.8818 44.5149C42.0398 45.3102 28.6149 52.1064 16.344 65.1942C15.3841 66.1707 15.3851 67.7305 16.3616 68.6905ZM108.656 90.802C109.52 93.0936 110.104 95.345 110.275 97.4859C110.489 100.208 109.964 102.733 107.842 104.527C107.482 104.826 107.044 105.244 106.685 105.544C106.414 104.598 105.947 102.739 105.94 101.201C105.94 97.7675 106.721 93.6819 108.287 89.8768C108.435 90.1956 108.552 90.4948 108.656 90.802Z" fill="#4D2C5E"/>
<path fill-rule="evenodd" clip-rule="evenodd" d="M106.358 105.805C106.115 105.67 105.882 105.584 105.901 105.775C105.929 106.016 106.091 105.978 106.358 105.805Z" fill="#4D2C5E"/>
<path fill-rule="evenodd" clip-rule="evenodd" d="M23.1599 63.2611C24.2905 60.7358 25.3828 58.049 26.1622 55.4878C27.3612 51.4911 27.8754 47.8347 26.8893 45.1729C26.5817 43.8451 25.2429 43.0208 23.9231 43.3422C22.5953 43.6498 21.7711 44.9886 22.0925 46.3084C22.1605 46.9668 21.9308 47.6501 21.7134 48.4182C21.2166 50.2287 20.1049 52.1189 18.8953 54.1575C17.349 56.7576 15.4891 59.3552 13.9024 61.7582C12.4587 63.9319 11.2549 65.9488 10.489 67.5476C9.27952 70.0633 9.21401 72.1757 9.48772 73.4129C9.56409 73.7359 12.2457 78.5397 16.832 76.6261C18.4717 75.9365 22.5351 73.976 22.7358 73.8784C25.1772 72.5424 29.712 70.1262 34.031 68.8626C35.3958 68.4601 36.7135 68.1032 37.9142 68.0525C37.9778 68.1627 38.0414 68.2728 38.1188 68.375C39.2401 69.9674 41.4209 70.3422 43.0212 69.2347C43.9082 68.7042 45.065 67.2102 45.3746 66.3155C45.9683 64.5774 45.3074 63.1783 43.6852 62.022C41.4754 60.4523 38.2787 60.0031 34.685 60.2971C30.9081 60.6236 26.6288 61.956 23.1599 63.2611ZM19.1709 71.3287C18.9031 71.8505 18.8121 72.2335 19.1734 72.3186C19.5781 72.4154 19.3088 71.7264 19.1709 71.3287Z" fill="#4D2C5E"/>
</svg>
